<?xml version="1.0" encoding="utf-8"?>
<!-- Generator: Adobe Illustrator 19.1.0, SVG Export Plug-In . SVG Version: 6.00 Build 0)  -->
<svg version="1.1" id="XMLID_2_" xmlns="http://www.w3.org/2000/svg" xmlns:xlink="http://www.w3.org/1999/xlink" x="0px" y="0px"
	 viewBox="0 0 28.686 25.6992" enable-background="new 0 0 28.686 25.6992" xml:space="preserve">
<g id="icon-google">
	<g>
		<polygon fill="#770C44" points="23.7011,7.2744 23.7011,2.2773 21.2036,2.2773 21.2036,7.2744 16.2075,7.2744 16.2075,9.8086 
			21.2036,9.8086 21.2036,14.7925 23.7011,14.7925 23.7011,9.8086 28.686,9.8086 28.686,7.2744 		"/>
		<path fill="#770C44" d="M13.1845,14.7925c-0.7173-0.5113-2.0932-1.7437-2.0932-2.4717c0-0.8516,0.2426-1.2803,1.5205-2.2813
			c1.3183-1.0351,2.2568-2.4707,2.2568-4.1543c0-2.0102-0.9043-3.9604-2.5742-4.6059h2.5254L16.6088,0H8.6386
			C5.082,0,1.7192,2.7051,1.7192,5.8369c0,3.1909,2.4355,5.7749,6.0679,5.7749l0.7299-0.021
			c-0.2299,0.4473-0.4023,0.959-0.4023,1.4834c0,0.8902,0.4771,1.624,1.0859,2.2051L7.812,15.2925
			C3.4018,15.2925,0,18.1074,0,21.019c0,2.8765,3.7294,4.6802,8.1381,4.6802c5.0464,0,7.8257-2.8628,7.8257-5.7388
			C15.9638,17.6572,15.2919,16.2793,13.1845,14.7925z M8.9321,10.8105C6.8847,10.7476,4.935,8.5049,4.5844,5.811
			C4.2275,3.1201,5.6059,1.062,7.6523,1.1196c2.0464,0.0625,3.9961,2.232,4.3516,4.9116
			C12.3569,8.7393,10.9785,10.8682,8.9321,10.8105z M8.1274,24.4346c-3.0454,0-5.2515-1.9375-5.2515-4.2554
			c0-2.2783,2.73-4.1763,5.7867-4.1436c0.7094,0,1.3798,0.1206,1.9765,0.3164c1.6553,1.146,2.8501,1.8033,3.1821,3.1197
			c0.0708,0.2685,0.0953,0.5517,0.0953,0.8193C13.9165,22.6201,12.4282,24.4346,8.1274,24.4346z"/>
	</g>
</g>
</svg>
