<?xml version="1.0" encoding="utf-8"?>
<!-- Generator: Adobe Illustrator 19.1.0, SVG Export Plug-In . SVG Version: 6.00 Build 0)  -->
<svg version="1.1" id="XMLID_1_" xmlns="http://www.w3.org/2000/svg" xmlns:xlink="http://www.w3.org/1999/xlink" x="0px" y="0px"
	 viewBox="0 0 21.3906 21.5782" enable-background="new 0 0 21.3906 21.5782" xml:space="preserve">
<path id="icon-share" fill="#770C44" d="M17.459,13.7139c-1.252,0-2.3497,0.5947-3.0689,1.5059l-6.6802-3.4141
	c0.0874-0.3262,0.1485-0.6621,0.1485-1.0166c0-0.3882-0.0703-0.7519-0.1768-1.102l6.646-3.4009
	c0.7192,0.9551,1.8462,1.5742,3.1314,1.5742c2.1767,0,3.9316-1.7559,3.9316-3.9287C21.3906,1.7603,19.6357,0,17.459,0
	c-2.1675,0-3.9273,1.7603-3.9273,3.9317c0,0.3555,0.062,0.6914,0.1489,1.0171L7.0058,8.3633
	C6.2861,7.4532,5.184,6.8575,3.9316,6.8575C1.7602,6.8575,0,8.6172,0,10.7891c0,2.1724,1.7602,3.9316,3.9316,3.9316
	c1.2852,0,2.4121-0.6284,3.1314-1.582l6.646,3.3994c-0.1055,0.355-0.1822,0.7202-0.1822,1.1079
	c0,2.1724,1.7647,3.9322,3.9322,3.9322c2.1718,0,3.9316-1.7598,3.9316-3.9322C21.3906,15.4737,19.6308,13.7139,17.459,13.7139
	L17.459,13.7139z M17.459,13.7139"/>
</svg>
