<?xml version="1.0" encoding="utf-8"?>
<!-- Generator: Adobe Illustrator 19.1.0, SVG Export Plug-In . SVG Version: 6.00 Build 0)  -->
<svg version="1.1" id="XMLID_2_" xmlns="http://www.w3.org/2000/svg" xmlns:xlink="http://www.w3.org/1999/xlink" x="0px" y="0px"
	 viewBox="0 0 26.7495 21.6944" enable-background="new 0 0 26.7495 21.6944" xml:space="preserve">
<path id="icon-twitter" fill="#770C44" d="M23.6089,3.44c1.2041-0.7407,2.0019-1.7495,2.3867-3.0259
	c-1.1694,0.624-2.3286,1.0444-3.4897,1.2764C21.4605,0.5743,20.1333,0,18.5508,0c-1.5518,0-2.8584,0.544-3.9224,1.6031
	c-1.0678,1.0678-1.6045,2.3594-1.6045,3.8691c0,0.4644,0.0576,0.8692,0.1729,1.2188C8.6274,6.5376,4.8457,4.6363,1.8652,0.9864
	C1.356,1.8799,1.1118,2.793,1.1118,3.7305c0,1.9365,0.8111,3.4663,2.4361,4.5918c-0.9288-0.0791-1.7403-0.312-2.4361-0.6958
	c0,1.3775,0.3965,2.5318,1.2168,3.5454c0.812,1.0039,1.8574,1.6426,3.1411,1.916c-0.4648,0.1182-0.9555,0.1758-1.457,0.1758
	c-0.4648,0-0.792-0.0381-0.9868-0.1245c0.3393,1.1255,0.9868,2.0381,1.9219,2.7354c0.9296,0.7031,1.9941,1.0737,3.1928,1.104
	c-1.9741,1.5527-4.2363,2.3217-6.7978,2.3217c-0.6309,0-1.0733-0.0083-1.3428-0.0522c2.5244,1.6318,5.3262,2.4463,8.4307,2.4463
	c3.1845,0,5.9936-0.8067,8.4306-2.4185c2.4449-1.5942,4.2515-3.5761,5.4117-5.9048c1.1616-2.3212,1.7417-4.7358,1.7417-7.2631
	V5.4122c1.1245-0.8487,2.0385-1.8047,2.7348-2.8584C25.7339,2.9913,24.689,3.2881,23.6089,3.44L23.6089,3.44z M23.6089,3.44"/>
</svg>
